<svg xmlns="http://www.w3.org/2000/svg" width="88" height="120" fill="none" viewBox="0 0 88 120"><defs><clipPath id="a"><rect width="88" height="120" rx="0"/></clipPath></defs><g clip-path="url(#a)"><path fill="#fff" fill-opacity=".45" fill-rule="evenodd" d="m22.203 43.445 6.616-2.358c1.692-.602 3.66.032 4.398 1.414.374.702.37 1.498-.01 2.198l-1.815 3.336c-.15.276.003.6.34.723.13.047.272.058.41.034l11.199-1.486c1.41-.248 2.883.05 3.989.809l5.432 3.724a2.33 2.33 0 0 0 1.6.364l19.027-2.092c1.233-.158 2.39.531 2.583 1.539.137.711-.243 1.418-.965 1.817l-.13.06-4.393 2.411a28.3 28.3 0 0 0-5.08 3.547h.11c5.427 0 9.828 4.4 9.828 9.829 0 5.428-4.4 9.829-9.829 9.829A9.83 9.83 0 0 1 55.93 71.5l-13.865-.002c-2.154 0-4.113-1.016-5.025-2.61l-3.595-6.28c-.8-1.4-2.014-2.566-3.485-3.425L28.394 62a9.83 9.83 0 0 1 3.264 7.315c0 5.428-4.4 9.829-9.83 9.829-5.427 0-9.828-4.4-9.828-9.83 0-5.428 4.4-9.828 9.829-9.828.93 0 1.855.132 2.747.392l1.205-2.167a13 13 0 0 0-2.833-.142l-6.619.384c-1.84.107-3.44-1.027-3.57-2.53a2.3 2.3 0 0 1 .232-1.207l2.495-5.108c1.24-2.536 3.653-4.57 6.717-5.662M19.92 68.253l2.432-4.375a5.46 5.46 0 1 0-.523 10.896 5.46 5.46 0 0 0 4.34-8.773l-2.43 4.374a2.184 2.184 0 0 1-3.896-1.97zm44.501 3.245h-3.913a5.46 5.46 0 1 0 0-4.368h3.913a2.184 2.184 0 0 1 .163 4.362z"/></g></svg>