<svg xmlns="http://www.w3.org/2000/svg" fill="none" width="88" height="120"><defs><clipPath id="a"><rect width="88" height="120" rx="0"/></clipPath></defs><g clip-path="url(#a)"><path d="m86.6183 31.4615-24.401 14.28c-1.2605.7374-2.8108-.3277-2.574-1.7687l1.2213-7.4284h-7.4652c-1.1046 0-2 .8955-2 2v31.6268q.0031.1807.0031.3621l-.0001 32.432c-.0001 1.4912-1.2089 2.7-2.7 2.7h-7.603c-1.4912 0-2.7-1.2088-2.7-2.7v-32.663q-.0791-2.9764-2.2068-5.104-2.2099-2.21-5.3351-2.21-3.1253 0-5.3351 2.21-2.2099 2.2097-2.2099 5.335v8.4353l7.6603-1.262c1.4405-.2373 2.5054 1.3101 1.7694 2.5708l-14.2442 24.401c-.6653 1.1395-2.3113 1.1402-2.9777.0013L1.2403 80.279c-.7376-1.2604.3279-2.8109 1.769-2.574l7.3032 1.2006v-8.3723q0-4.1756 1.6172-7.999 1.5599-3.6882 4.4003-6.5285 2.8403-2.8404 6.5285-4.4003 3.8234-1.6172 7.999-1.6172 3.9266 0 7.5419 1.4301v-15.874c0-6.6274 5.3726-12 12-12h10.4872l-1.2415-7.5357c-.2373-1.4404 1.3103-2.5052 2.5711-1.7691l24.401 14.2444c1.1396.6653 1.14 2.3111.0011 2.9775Z" fill-rule="evenodd" fill="#FFF" fill-opacity=".45"/></g></svg>