<svg xmlns="http://www.w3.org/2000/svg" fill="none" width="88" height="120"><defs><clipPath id="a"><rect width="88" height="120" rx="0"/></clipPath></defs><g clip-path="url(#a)" fill-rule="evenodd" fill="#FFF"><path d="M65.1583 14.6189 52.1534 36.844c-.6717 1.148.2982 2.5593 1.6107 2.3436l6.3198-1.0386v4.8676H31.2217l1.051-6.379c.216-1.3116-1.193-2.281-2.341-1.6109L7.714 47.9967c-1.0376.6056-1.038 2.1042-.001 2.711l22.2176 13.0021c1.1477.6715 2.5593-.2983 2.3437-1.6104l-1-6.0828h26.7276c1.1046 0 2 .8954 2 2v45.2832c0 1.4911 1.2088 2.7 2.7 2.7h7.6871c1.4884 0 2.695-1.2066 2.695-2.695v-65.131l6.1504 1.013c1.312.2161 2.2824-1.1938 1.612-2.3422L67.871 14.6202c-.606-1.038-2.1056-1.0387-2.7126-.0013Z" fill-opacity=".45"/><path d="M60.1015 84.8955v18.4047c0 1.4912 1.209 2.7 2.7 2.7h7.6c1.4912 0 2.7-1.2088 2.7-2.7V84.8955q0-5.0242-1.9453-9.623-1.877-4.4366-5.2949-7.8545-3.4175-3.4183-7.8545-5.295-4.5994-1.9453-9.624-1.9453-5.0242.0002-9.623 1.9453-4.4366 1.877-7.8545 5.295-3.4183 3.4174-5.295 7.8544-1.32 3.1204-1.7443 6.437l-6.3503-1.0462c-1.3116-.216-2.2813 1.193-1.611 2.3408l12.9696 22.2172c.6058 1.0376 2.1045 1.0383 2.7113.0013l13.0021-22.217c.6715-1.1478-.2983-2.559-1.6104-2.3434l-5.8799.9664q.7857-2.8046 2.9993-5.0182 3.4323-3.4326 8.2861-3.4326 4.854.0005 8.2861 3.4326 3.4326 3.4314 3.4326 8.2852Z"/></g></svg>