<svg xmlns="http://www.w3.org/2000/svg" fill="none" width="88" height="120"><defs><clipPath id="a"><rect width="88" height="120" rx="0"/></clipPath></defs><g clip-path="url(#a)"><path d="M12 18H8v84h4v-7.6l8-5.12v-3.84l-8 5.12v-6.4l8-5.12V75.2l-8 5.12v-6.4l8-5.12v-3.84l-8 5.12v-6.4l8-5.12v-3.84l-8 5.12v-6.4l8-5.12v-3.84l-8 5.12v-6.4l8-5.12v-3.84l-8 5.12v-6.4l8-5.12V24l-8 5.12V18Zm68 0h-4v11.2279l-7.7246-4.9437v3.84L76 33.0679v6.4l-7.7246-4.9437v3.84L76 43.3079v6.4l-7.7246-4.9437v3.84L76 53.5479v6.4l-7.7246-4.9437v3.84L76 63.7879v6.4l-7.7246-4.9437v3.84L76 74.0279v6.4l-7.7246-4.9437v3.84L76 84.2679v6.4l-7.7246-4.9437v3.84L76 94.5079V102h4V18ZM55.1525 50.4897c0 2.516-1.224 3.808-3.604 3.808h-5.746l-.816-3.434c1.836.136 3.638.204 5.338.204.816 0 1.258-.51 1.258-1.462v-21.284h-22.848v-3.434h30.634v3.434h-4.216v22.168Zm-19.38-4.76v2.72h-3.4v-16.048h14.042v13.328h-10.642Zm0-3.196h7.276v-6.97h-7.276v6.97Zm6.018 26.57v8.67h-3.536v-8.67h-9.044v-3.4h12.988c-.34-.85-.68-1.632-1.054-2.346l3.842-.612c.272.884.578 1.87.85 2.958h12.954v3.4h-9.01v8.67h-3.536v-8.67h-4.454Zm17.782 6.018-2.482 2.448c-1.394-1.598-3.366-3.332-5.95-5.168l2.38-2.244c2.38 1.632 4.42 3.298 6.052 4.964Zm-22.508-2.584c-1.768 1.87-3.91 3.502-6.494 4.93l-2.176-2.856c2.38-1.224 4.42-2.686 6.052-4.318l2.618 2.244Zm7.276 17.68c-4.046 1.938-8.704 3.366-14.008 4.25l-1.666-3.366c4.488-.612 8.466-1.598 11.968-2.992-2.584-1.7-4.726-3.638-6.46-5.882h-2.652v-3.128h23.732v2.686c-2.074 2.55-4.556 4.726-7.446 6.528 3.468 1.326 7.48 2.278 12.07 2.856l-1.632 3.264c-5.406-.918-10.03-2.312-13.906-4.216Zm-6.154-7.99c1.598 1.666 3.536 3.128 5.814 4.352a29.7096 29.7096 0 0 0 6.256-4.352h-12.07Z" fill-rule="evenodd" fill="#FFF" style="mix-blend-mode:passthrough"/></g></svg>